<mxfile host="app.diagrams.net" modified="2024-05-10T01:08:19.641Z" agent="Mozilla/5.0 (Windows NT 10.0; Win64; x64) AppleWebKit/537.36 (KHTML, like Gecko) Chrome/124.0.0.0 Safari/537.36" etag="7do_yFiGYeMKUj0exhxd" version="24.3.1" type="device">
  <diagram name="Application Architecture" id="TSBKuL5aVJlgpZzc7GTK">
    <mxGraphModel dx="1050" dy="556" grid="1" gridSize="8" guides="1" tooltips="1" connect="1" arrows="1" fold="1" page="1" pageScale="1" pageWidth="827" pageHeight="1169" math="0" shadow="0">
      <root>
        <mxCell id="0" />
        <mxCell id="1" parent="0" />
        <mxCell id="-pZkr9KZUMjZmnqGvAKF-1" value="AppServer" style="rounded=0;whiteSpace=wrap;html=1;fontSize=12;fontFamily=Cascadia Code;fontSource=https%3A%2F%2Ffonts.googleapis.com%2Fcss%3Ffamily%3DCascadia%2BCode;" vertex="1" parent="1">
          <mxGeometry x="64" y="64" width="704" height="32" as="geometry" />
        </mxCell>
        <mxCell id="-pZkr9KZUMjZmnqGvAKF-32" style="edgeStyle=orthogonalEdgeStyle;rounded=0;orthogonalLoop=1;jettySize=auto;html=1;exitX=0.25;exitY=0;exitDx=0;exitDy=0;entryX=0.25;entryY=1;entryDx=0;entryDy=0;strokeColor=default;align=center;verticalAlign=middle;fontFamily=Cascadia Code;fontSource=https%3A%2F%2Ffonts.googleapis.com%2Fcss%3Ffamily%3DCascadia%2BCode;fontSize=12;fontColor=default;labelBackgroundColor=default;resizable=0;endArrow=open;endFill=0;" edge="1" parent="1" source="-pZkr9KZUMjZmnqGvAKF-5" target="-pZkr9KZUMjZmnqGvAKF-30">
          <mxGeometry relative="1" as="geometry" />
        </mxCell>
        <mxCell id="-pZkr9KZUMjZmnqGvAKF-33" value="Use" style="edgeLabel;html=1;align=center;verticalAlign=middle;resizable=0;points=[];fontFamily=Cascadia Code;fontSource=https%3A%2F%2Ffonts.googleapis.com%2Fcss%3Ffamily%3DCascadia%2BCode;fontSize=12;fontColor=default;labelBackgroundColor=default;fillColor=none;gradientColor=none;" vertex="1" connectable="0" parent="-pZkr9KZUMjZmnqGvAKF-32">
          <mxGeometry relative="1" as="geometry">
            <mxPoint as="offset" />
          </mxGeometry>
        </mxCell>
        <mxCell id="-pZkr9KZUMjZmnqGvAKF-5" value="DataSource" style="rounded=0;whiteSpace=wrap;html=1;fontSize=12;fontFamily=Cascadia Code;fontSource=https%3A%2F%2Ffonts.googleapis.com%2Fcss%3Ffamily%3DCascadia%2BCode;" vertex="1" parent="1">
          <mxGeometry x="64" y="544" width="704" height="32" as="geometry" />
        </mxCell>
        <mxCell id="-pZkr9KZUMjZmnqGvAKF-22" style="edgeStyle=orthogonalEdgeStyle;rounded=0;orthogonalLoop=1;jettySize=auto;html=1;exitX=0.75;exitY=1;exitDx=0;exitDy=0;entryX=0.5;entryY=0;entryDx=0;entryDy=0;strokeColor=default;align=center;verticalAlign=middle;fontFamily=Cascadia Code;fontSource=https%3A%2F%2Ffonts.googleapis.com%2Fcss%3Ffamily%3DCascadia%2BCode;fontSize=12;fontColor=default;labelBackgroundColor=default;resizable=0;endArrow=none;endFill=0;" edge="1" parent="1" source="-pZkr9KZUMjZmnqGvAKF-6" target="-pZkr9KZUMjZmnqGvAKF-21">
          <mxGeometry relative="1" as="geometry" />
        </mxCell>
        <mxCell id="-pZkr9KZUMjZmnqGvAKF-29" style="edgeStyle=orthogonalEdgeStyle;rounded=0;orthogonalLoop=1;jettySize=auto;html=1;exitX=0.25;exitY=0;exitDx=0;exitDy=0;entryX=0.25;entryY=1;entryDx=0;entryDy=0;strokeColor=default;align=center;verticalAlign=middle;fontFamily=Cascadia Code;fontSource=https%3A%2F%2Ffonts.googleapis.com%2Fcss%3Ffamily%3DCascadia%2BCode;fontSize=12;fontColor=default;labelBackgroundColor=default;resizable=0;endArrow=ERone;endFill=0;" edge="1" parent="1" source="-pZkr9KZUMjZmnqGvAKF-6" target="-pZkr9KZUMjZmnqGvAKF-5">
          <mxGeometry relative="1" as="geometry" />
        </mxCell>
        <mxCell id="-pZkr9KZUMjZmnqGvAKF-31" value="Link" style="edgeLabel;html=1;align=center;verticalAlign=middle;resizable=0;points=[];fontFamily=Cascadia Code;fontSource=https%3A%2F%2Ffonts.googleapis.com%2Fcss%3Ffamily%3DCascadia%2BCode;fontSize=12;fontColor=default;labelBackgroundColor=default;fillColor=none;gradientColor=none;" vertex="1" connectable="0" parent="-pZkr9KZUMjZmnqGvAKF-29">
          <mxGeometry relative="1" as="geometry">
            <mxPoint as="offset" />
          </mxGeometry>
        </mxCell>
        <mxCell id="-pZkr9KZUMjZmnqGvAKF-6" value="Repository" style="rounded=0;whiteSpace=wrap;html=1;fontSize=12;fontFamily=Cascadia Code;fontSource=https%3A%2F%2Ffonts.googleapis.com%2Fcss%3Ffamily%3DCascadia%2BCode;" vertex="1" parent="1">
          <mxGeometry x="64" y="704" width="704" height="32" as="geometry" />
        </mxCell>
        <mxCell id="-pZkr9KZUMjZmnqGvAKF-18" style="edgeStyle=orthogonalEdgeStyle;rounded=0;orthogonalLoop=1;jettySize=auto;html=1;exitX=0.25;exitY=0;exitDx=0;exitDy=0;entryX=0.25;entryY=1;entryDx=0;entryDy=0;strokeColor=default;align=center;verticalAlign=middle;fontFamily=Cascadia Code;fontSource=https%3A%2F%2Ffonts.googleapis.com%2Fcss%3Ffamily%3DCascadia%2BCode;fontSize=12;fontColor=default;labelBackgroundColor=default;resizable=0;endArrow=ERoneToMany;endFill=0;" edge="1" parent="1" source="-pZkr9KZUMjZmnqGvAKF-7" target="-pZkr9KZUMjZmnqGvAKF-6">
          <mxGeometry relative="1" as="geometry" />
        </mxCell>
        <mxCell id="-pZkr9KZUMjZmnqGvAKF-19" value="Await" style="edgeLabel;html=1;align=center;verticalAlign=middle;resizable=0;points=[];fontFamily=Cascadia Code;fontSource=https%3A%2F%2Ffonts.googleapis.com%2Fcss%3Ffamily%3DCascadia%2BCode;fontSize=12;fontColor=default;labelBackgroundColor=default;fillColor=none;gradientColor=none;" vertex="1" connectable="0" parent="-pZkr9KZUMjZmnqGvAKF-18">
          <mxGeometry relative="1" as="geometry">
            <mxPoint as="offset" />
          </mxGeometry>
        </mxCell>
        <mxCell id="-pZkr9KZUMjZmnqGvAKF-7" value="UseCase" style="rounded=0;whiteSpace=wrap;html=1;fontSize=12;fontFamily=Cascadia Code;fontSource=https%3A%2F%2Ffonts.googleapis.com%2Fcss%3Ffamily%3DCascadia%2BCode;" vertex="1" parent="1">
          <mxGeometry x="64" y="864" width="704" height="32" as="geometry" />
        </mxCell>
        <mxCell id="-pZkr9KZUMjZmnqGvAKF-24" style="edgeStyle=orthogonalEdgeStyle;rounded=0;orthogonalLoop=1;jettySize=auto;html=1;exitX=0.25;exitY=0;exitDx=0;exitDy=0;entryX=0.25;entryY=1;entryDx=0;entryDy=0;strokeColor=default;align=center;verticalAlign=middle;fontFamily=Cascadia Code;fontSource=https%3A%2F%2Ffonts.googleapis.com%2Fcss%3Ffamily%3DCascadia%2BCode;fontSize=12;fontColor=default;labelBackgroundColor=default;resizable=0;endArrow=open;endFill=0;" edge="1" parent="1" source="-pZkr9KZUMjZmnqGvAKF-8" target="-pZkr9KZUMjZmnqGvAKF-7">
          <mxGeometry relative="1" as="geometry" />
        </mxCell>
        <mxCell id="-pZkr9KZUMjZmnqGvAKF-25" value="Watch" style="edgeLabel;html=1;align=center;verticalAlign=middle;resizable=0;points=[];fontFamily=Cascadia Code;fontSource=https%3A%2F%2Ffonts.googleapis.com%2Fcss%3Ffamily%3DCascadia%2BCode;fontSize=12;fontColor=default;labelBackgroundColor=default;fillColor=none;gradientColor=none;" vertex="1" connectable="0" parent="-pZkr9KZUMjZmnqGvAKF-24">
          <mxGeometry relative="1" as="geometry">
            <mxPoint as="offset" />
          </mxGeometry>
        </mxCell>
        <mxCell id="-pZkr9KZUMjZmnqGvAKF-8" value="UI" style="rounded=0;whiteSpace=wrap;html=1;fontSize=12;fontFamily=Cascadia Code;fontSource=https%3A%2F%2Ffonts.googleapis.com%2Fcss%3Ffamily%3DCascadia%2BCode;snapToPoint=0;" vertex="1" parent="1">
          <mxGeometry x="64" y="1024" width="704" height="32" as="geometry" />
        </mxCell>
        <mxCell id="-pZkr9KZUMjZmnqGvAKF-23" style="edgeStyle=orthogonalEdgeStyle;rounded=0;orthogonalLoop=1;jettySize=auto;html=1;exitX=0.5;exitY=1;exitDx=0;exitDy=0;entryX=0.75;entryY=0;entryDx=0;entryDy=0;strokeColor=default;align=center;verticalAlign=middle;fontFamily=Cascadia Code;fontSource=https%3A%2F%2Ffonts.googleapis.com%2Fcss%3Ffamily%3DCascadia%2BCode;fontSize=12;fontColor=default;labelBackgroundColor=default;resizable=0;endArrow=open;endFill=0;" edge="1" parent="1" source="-pZkr9KZUMjZmnqGvAKF-21" target="-pZkr9KZUMjZmnqGvAKF-7">
          <mxGeometry relative="1" as="geometry" />
        </mxCell>
        <mxCell id="-pZkr9KZUMjZmnqGvAKF-21" value="Response Object" style="rounded=0;whiteSpace=wrap;html=1;fontSize=12;fontFamily=Cascadia Code;fontSource=https%3A%2F%2Ffonts.googleapis.com%2Fcss%3Ffamily%3DCascadia%2BCode;" vertex="1" parent="1">
          <mxGeometry x="512" y="768" width="160" height="32" as="geometry" />
        </mxCell>
        <mxCell id="-pZkr9KZUMjZmnqGvAKF-26" style="edgeStyle=orthogonalEdgeStyle;rounded=0;orthogonalLoop=1;jettySize=auto;html=1;exitX=0.75;exitY=1;exitDx=0;exitDy=0;entryX=0.5;entryY=0;entryDx=0;entryDy=0;strokeColor=default;align=center;verticalAlign=middle;fontFamily=Cascadia Code;fontSource=https%3A%2F%2Ffonts.googleapis.com%2Fcss%3Ffamily%3DCascadia%2BCode;fontSize=12;fontColor=default;labelBackgroundColor=default;resizable=0;endArrow=none;endFill=0;" edge="1" parent="1" target="-pZkr9KZUMjZmnqGvAKF-28">
          <mxGeometry relative="1" as="geometry">
            <mxPoint x="592" y="896" as="sourcePoint" />
          </mxGeometry>
        </mxCell>
        <mxCell id="-pZkr9KZUMjZmnqGvAKF-27" style="edgeStyle=orthogonalEdgeStyle;rounded=0;orthogonalLoop=1;jettySize=auto;html=1;entryX=0.75;entryY=0;entryDx=0;entryDy=0;strokeColor=default;align=center;verticalAlign=middle;fontFamily=Cascadia Code;fontSource=https%3A%2F%2Ffonts.googleapis.com%2Fcss%3Ffamily%3DCascadia%2BCode;fontSize=12;fontColor=default;labelBackgroundColor=default;resizable=0;endArrow=open;endFill=0;" edge="1" parent="1">
          <mxGeometry relative="1" as="geometry">
            <mxPoint x="592" y="1024" as="targetPoint" />
            <mxPoint x="592" y="896" as="sourcePoint" />
          </mxGeometry>
        </mxCell>
        <mxCell id="-pZkr9KZUMjZmnqGvAKF-28" value="State Object" style="rounded=0;whiteSpace=wrap;html=1;fontSize=12;fontFamily=Cascadia Code;fontSource=https%3A%2F%2Ffonts.googleapis.com%2Fcss%3Ffamily%3DCascadia%2BCode;" vertex="1" parent="1">
          <mxGeometry x="512" y="928" width="160" height="32" as="geometry" />
        </mxCell>
        <mxCell id="-pZkr9KZUMjZmnqGvAKF-40" style="edgeStyle=orthogonalEdgeStyle;rounded=0;orthogonalLoop=1;jettySize=auto;html=1;exitX=0.25;exitY=0;exitDx=0;exitDy=0;entryX=0.5;entryY=1;entryDx=0;entryDy=0;strokeColor=default;align=center;verticalAlign=middle;fontFamily=Cascadia Code;fontSource=https%3A%2F%2Ffonts.googleapis.com%2Fcss%3Ffamily%3DCascadia%2BCode;fontSize=12;fontColor=default;labelBackgroundColor=default;resizable=0;endArrow=none;endFill=0;" edge="1" parent="1" source="-pZkr9KZUMjZmnqGvAKF-30" target="-pZkr9KZUMjZmnqGvAKF-39">
          <mxGeometry relative="1" as="geometry" />
        </mxCell>
        <mxCell id="-pZkr9KZUMjZmnqGvAKF-42" value="Request" style="edgeLabel;html=1;align=center;verticalAlign=middle;resizable=0;points=[];fontFamily=Cascadia Code;fontSource=https%3A%2F%2Ffonts.googleapis.com%2Fcss%3Ffamily%3DCascadia%2BCode;fontSize=12;fontColor=default;labelBackgroundColor=default;fillColor=none;gradientColor=none;" vertex="1" connectable="0" parent="-pZkr9KZUMjZmnqGvAKF-40">
          <mxGeometry relative="1" as="geometry">
            <mxPoint as="offset" />
          </mxGeometry>
        </mxCell>
        <mxCell id="-pZkr9KZUMjZmnqGvAKF-30" value="Network" style="rounded=0;whiteSpace=wrap;html=1;fontSize=12;fontFamily=Cascadia Code;fontSource=https%3A%2F%2Ffonts.googleapis.com%2Fcss%3Ffamily%3DCascadia%2BCode;" vertex="1" parent="1">
          <mxGeometry x="64" y="384" width="704" height="32" as="geometry" />
        </mxCell>
        <mxCell id="-pZkr9KZUMjZmnqGvAKF-36" style="edgeStyle=orthogonalEdgeStyle;rounded=0;orthogonalLoop=1;jettySize=auto;html=1;exitX=0.75;exitY=1;exitDx=0;exitDy=0;entryX=0.5;entryY=0;entryDx=0;entryDy=0;strokeColor=default;align=center;verticalAlign=middle;fontFamily=Cascadia Code;fontSource=https%3A%2F%2Ffonts.googleapis.com%2Fcss%3Ffamily%3DCascadia%2BCode;fontSize=12;fontColor=default;labelBackgroundColor=default;resizable=0;endArrow=none;endFill=0;" edge="1" parent="1" target="-pZkr9KZUMjZmnqGvAKF-38">
          <mxGeometry relative="1" as="geometry">
            <mxPoint x="592" y="96" as="sourcePoint" />
          </mxGeometry>
        </mxCell>
        <mxCell id="-pZkr9KZUMjZmnqGvAKF-43" value="Response" style="edgeLabel;html=1;align=center;verticalAlign=middle;resizable=0;points=[];fontFamily=Cascadia Code;fontSource=https%3A%2F%2Ffonts.googleapis.com%2Fcss%3Ffamily%3DCascadia%2BCode;fontSize=12;fontColor=default;labelBackgroundColor=default;fillColor=none;gradientColor=none;" vertex="1" connectable="0" parent="-pZkr9KZUMjZmnqGvAKF-36">
          <mxGeometry relative="1" as="geometry">
            <mxPoint as="offset" />
          </mxGeometry>
        </mxCell>
        <mxCell id="-pZkr9KZUMjZmnqGvAKF-37" style="edgeStyle=orthogonalEdgeStyle;rounded=0;orthogonalLoop=1;jettySize=auto;html=1;exitX=0.5;exitY=1;exitDx=0;exitDy=0;entryX=0.75;entryY=0;entryDx=0;entryDy=0;strokeColor=default;align=center;verticalAlign=middle;fontFamily=Cascadia Code;fontSource=https%3A%2F%2Ffonts.googleapis.com%2Fcss%3Ffamily%3DCascadia%2BCode;fontSize=12;fontColor=default;labelBackgroundColor=default;resizable=0;endArrow=open;endFill=0;" edge="1" parent="1" source="-pZkr9KZUMjZmnqGvAKF-38" target="-pZkr9KZUMjZmnqGvAKF-30">
          <mxGeometry relative="1" as="geometry">
            <mxPoint x="592" y="224" as="targetPoint" />
          </mxGeometry>
        </mxCell>
        <mxCell id="-pZkr9KZUMjZmnqGvAKF-38" value="JSON" style="rounded=0;whiteSpace=wrap;html=1;fontSize=12;fontFamily=Cascadia Code;fontSource=https%3A%2F%2Ffonts.googleapis.com%2Fcss%3Ffamily%3DCascadia%2BCode;" vertex="1" parent="1">
          <mxGeometry x="512" y="128" width="160" height="32" as="geometry" />
        </mxCell>
        <mxCell id="-pZkr9KZUMjZmnqGvAKF-41" style="edgeStyle=orthogonalEdgeStyle;rounded=0;orthogonalLoop=1;jettySize=auto;html=1;exitX=0.5;exitY=0;exitDx=0;exitDy=0;entryX=0.25;entryY=1;entryDx=0;entryDy=0;strokeColor=default;align=center;verticalAlign=middle;fontFamily=Cascadia Code;fontSource=https%3A%2F%2Ffonts.googleapis.com%2Fcss%3Ffamily%3DCascadia%2BCode;fontSize=12;fontColor=default;labelBackgroundColor=default;resizable=0;endArrow=open;endFill=0;" edge="1" parent="1" source="-pZkr9KZUMjZmnqGvAKF-39" target="-pZkr9KZUMjZmnqGvAKF-1">
          <mxGeometry relative="1" as="geometry" />
        </mxCell>
        <mxCell id="-pZkr9KZUMjZmnqGvAKF-39" value="JSON" style="rounded=0;whiteSpace=wrap;html=1;fontSize=12;fontFamily=Cascadia Code;fontSource=https%3A%2F%2Ffonts.googleapis.com%2Fcss%3Ffamily%3DCascadia%2BCode;" vertex="1" parent="1">
          <mxGeometry x="160" y="320" width="160" height="32" as="geometry" />
        </mxCell>
        <mxCell id="-pZkr9KZUMjZmnqGvAKF-44" style="edgeStyle=orthogonalEdgeStyle;rounded=0;orthogonalLoop=1;jettySize=auto;html=1;exitX=0.75;exitY=1;exitDx=0;exitDy=0;entryX=0.5;entryY=0;entryDx=0;entryDy=0;strokeColor=default;align=center;verticalAlign=middle;fontFamily=Cascadia Code;fontSource=https%3A%2F%2Ffonts.googleapis.com%2Fcss%3Ffamily%3DCascadia%2BCode;fontSize=12;fontColor=default;labelBackgroundColor=default;resizable=0;endArrow=none;endFill=0;" edge="1" parent="1" target="-pZkr9KZUMjZmnqGvAKF-46">
          <mxGeometry relative="1" as="geometry">
            <mxPoint x="592" y="416" as="sourcePoint" />
          </mxGeometry>
        </mxCell>
        <mxCell id="-pZkr9KZUMjZmnqGvAKF-50" value="Parse" style="edgeLabel;html=1;align=center;verticalAlign=middle;resizable=0;points=[];fontFamily=Cascadia Code;fontSource=https%3A%2F%2Ffonts.googleapis.com%2Fcss%3Ffamily%3DCascadia%2BCode;fontSize=12;fontColor=default;labelBackgroundColor=default;fillColor=none;gradientColor=none;" vertex="1" connectable="0" parent="-pZkr9KZUMjZmnqGvAKF-44">
          <mxGeometry relative="1" as="geometry">
            <mxPoint as="offset" />
          </mxGeometry>
        </mxCell>
        <mxCell id="-pZkr9KZUMjZmnqGvAKF-45" style="edgeStyle=orthogonalEdgeStyle;rounded=0;orthogonalLoop=1;jettySize=auto;html=1;exitX=0.5;exitY=1;exitDx=0;exitDy=0;entryX=0.75;entryY=0;entryDx=0;entryDy=0;strokeColor=default;align=center;verticalAlign=middle;fontFamily=Cascadia Code;fontSource=https%3A%2F%2Ffonts.googleapis.com%2Fcss%3Ffamily%3DCascadia%2BCode;fontSize=12;fontColor=default;labelBackgroundColor=default;resizable=0;endArrow=open;endFill=0;" edge="1" parent="1" source="-pZkr9KZUMjZmnqGvAKF-46">
          <mxGeometry relative="1" as="geometry">
            <mxPoint x="592" y="544" as="targetPoint" />
          </mxGeometry>
        </mxCell>
        <mxCell id="-pZkr9KZUMjZmnqGvAKF-46" value="Response Object" style="rounded=0;whiteSpace=wrap;html=1;fontSize=12;fontFamily=Cascadia Code;fontSource=https%3A%2F%2Ffonts.googleapis.com%2Fcss%3Ffamily%3DCascadia%2BCode;" vertex="1" parent="1">
          <mxGeometry x="512" y="448" width="160" height="32" as="geometry" />
        </mxCell>
        <mxCell id="-pZkr9KZUMjZmnqGvAKF-47" style="edgeStyle=orthogonalEdgeStyle;rounded=0;orthogonalLoop=1;jettySize=auto;html=1;exitX=0.75;exitY=1;exitDx=0;exitDy=0;entryX=0.5;entryY=0;entryDx=0;entryDy=0;strokeColor=default;align=center;verticalAlign=middle;fontFamily=Cascadia Code;fontSource=https%3A%2F%2Ffonts.googleapis.com%2Fcss%3Ffamily%3DCascadia%2BCode;fontSize=12;fontColor=default;labelBackgroundColor=default;resizable=0;endArrow=none;endFill=0;" edge="1" parent="1" target="-pZkr9KZUMjZmnqGvAKF-49">
          <mxGeometry relative="1" as="geometry">
            <mxPoint x="592" y="576" as="sourcePoint" />
          </mxGeometry>
        </mxCell>
        <mxCell id="-pZkr9KZUMjZmnqGvAKF-48" style="edgeStyle=orthogonalEdgeStyle;rounded=0;orthogonalLoop=1;jettySize=auto;html=1;exitX=0.5;exitY=1;exitDx=0;exitDy=0;entryX=0.75;entryY=0;entryDx=0;entryDy=0;strokeColor=default;align=center;verticalAlign=middle;fontFamily=Cascadia Code;fontSource=https%3A%2F%2Ffonts.googleapis.com%2Fcss%3Ffamily%3DCascadia%2BCode;fontSize=12;fontColor=default;labelBackgroundColor=default;resizable=0;endArrow=open;endFill=0;" edge="1" parent="1" source="-pZkr9KZUMjZmnqGvAKF-49">
          <mxGeometry relative="1" as="geometry">
            <mxPoint x="592" y="704" as="targetPoint" />
          </mxGeometry>
        </mxCell>
        <mxCell id="-pZkr9KZUMjZmnqGvAKF-49" value="Response Object" style="rounded=0;whiteSpace=wrap;html=1;fontSize=12;fontFamily=Cascadia Code;fontSource=https%3A%2F%2Ffonts.googleapis.com%2Fcss%3Ffamily%3DCascadia%2BCode;" vertex="1" parent="1">
          <mxGeometry x="512" y="608" width="160" height="32" as="geometry" />
        </mxCell>
      </root>
    </mxGraphModel>
  </diagram>
</mxfile>
